<?xml version="1.0" encoding="UTF-8"?>
<svg width="159px" height="45px" viewBox="0 0 159 45" version="1.1" xmlns="http://www.w3.org/2000/svg" xmlns:xlink="http://www.w3.org/1999/xlink">
    <!-- Generator: Sketch 52.6 (67491) - http://www.bohemiancoding.com/sketch -->
    <title>logo</title>
    <desc>Created with Sketch.</desc>
    <g id="Dev-Ready-Pack-1" stroke="none" stroke-width="1" fill="none" fill-rule="evenodd">
        <g id="Homepage-Option-2@2x" transform="translate(-641.000000, -137.000000)" fill="#DB3D55">
            <g id="logo" transform="translate(641.000000, 137.000000)">
                <path d="M22.5353036,17.0710428 C26.1465502,19.3783522 30.6179576,22.6908016 32.2715119,26.9102793 C33.2946836,29.4367123 33.166508,32.5093829 32.3436386,35.0728604 C31.5837405,37.3370634 30.2160133,39.3486906 28.3905161,40.8879445 C23.3514739,45.1424461 15.9824944,46.0099603 9.84592092,43.8863017 C6.67882285,42.7909079 3.79286252,40.7157439 1.97696733,37.8940776 C0.253965939,35.2192422 -0.54590329,31.8838926 0.407151391,28.7921385 C1.2514578,26.0266002 3.90697005,23.2096487 7.38334195,22.4977213 C9.49935558,22.0675564 11.4340476,22.5884241 12.5222003,23.5958093 C13.1550393,24.1692128 13.6271006,24.8979786 13.8919373,25.7100383 C14.0569577,26.2288855 13.7711307,26.500994 13.2570885,26.3243031 C12.4967438,26.0638692 11.7062533,26.1590623 10.6991594,26.4942586 C9.54044322,26.9046665 8.49851418,27.590326 7.66246996,28.4921905 C6.31841276,29.9367004 5.82067169,31.976616 5.92540052,33.9469329 C6.15785833,38.1709008 10.2876131,40.8367558 14.0638801,41.5762982 C15.9798148,41.9824403 17.9629635,41.9422527 19.861034,41.4602255 C21.7716094,40.9373372 23.5207371,39.9440963 24.9489793,38.5709812 C26.2604344,37.3220211 27.0998281,35.1752378 27.0998281,33.3420977 C27.0998281,29.985644 24.9373676,28.238492 20.2098323,24.8216445 C19.1714761,24.069754 18.0799739,23.4204654 16.9904815,22.7725239 C15.3429563,21.7923047 13.7001205,20.8147797 12.2526743,19.4899346 C9.88544544,17.3222717 7.81833504,14.4983604 7.49722618,11.213975 C7.20202039,8.16195946 8.75776828,5.26126501 10.9479183,3.23549364 C12.2792473,2.02874189 13.8550924,1.1237342 15.5678218,0.58176234 C17.2805513,0.0397904816 19.0897474,-0.126123853 20.8725939,0.0950204224 C23.1049481,0.381273165 25.3256905,1.35587956 26.6998935,3.14928105 C29.8042436,7.25717629 26.1302491,12.1605174 21.3515775,11.590706 C21.0237696,11.5442321 20.6515245,11.3814609 20.6981947,11.0790433 C20.7403988,10.9483773 20.8214576,10.8338762 20.9306525,10.7510313 C21.8258719,9.95042169 22.3906036,8.84492483 22.5143132,7.65029672 C22.7932179,5.04056976 20.6050776,1.7979436 17.7195639,2.84686345 C17.0547926,3.09584721 16.4500897,3.48200777 15.9443097,3.97997528 C15.4389764,4.47816731 15.0437311,5.07738972 14.7849236,5.7381284 C13.5502846,8.91115586 15.8335517,12.2211356 18.1847028,14.1330794 C19.1853209,14.9446901 20.287095,15.6415752 21.3864127,16.3366642 C21.7711628,16.5800352 22.1554662,16.8231816 22.5353036,17.0710428" id="Fill-1"></path>
                <path d="M14.377765,30.8445195 C14.0277518,30.9626688 13.5252498,31.1324464 12.8408278,31.8387609 C12.4497295,32.2422558 12.0991238,32.776807 11.7613571,33.2916998 C11.1820181,34.1753376 10.6413938,35 10.0027975,35 C8.34971597,35 9.06593938,31.7658856 9.84240771,30.7956712 C10.5527054,29.908062 11.6132138,29 13.2109885,29 C14.4891687,29 15.1012968,29.6636219 14.9863376,30.2424543 C14.9019947,30.6675933 14.7074332,30.7333201 14.377765,30.8445195" id="Fill-3"></path>
                <path d="M126.841912,26.4605688 C126.586832,28.8522315 125.967804,31.081759 124.76079,32.9890119 C124.575216,33.2855577 124.373222,33.5745623 124.156383,33.8560257 C123.888707,34.2082431 123.57042,34.5205367 123.211195,34.7827036 C123.142814,34.8317212 123.074208,34.8825133 123.001104,34.9288694 C121.819732,35.6727845 120.449862,35.058622 119.800018,33.5175599 C119.656283,33.1744362 119.564059,32.8222188 119.452715,32.4724411 C118.826713,28.2172199 119.282887,24.4051538 121.715811,21.4108621 C122.049168,21.0291454 122.471601,20.7319342 122.946669,20.5438483 C123.297346,20.4056673 123.675466,20.3475558 124.052462,20.3737282 C124.429007,20.3999005 124.79498,20.5094694 125.122264,20.6946719 C125.679884,20.9907741 126.12616,21.4547784 126.395636,22.017927 C126.490109,22.2182119 126.56119,22.4280341 126.608426,22.6436231 C126.886899,23.8965678 126.965852,25.1843351 126.841912,26.4605688 Z M100.281291,26.4605688 C100.025987,28.8522315 99.407184,31.081759 98.2001693,32.9890119 C98.0145959,33.2855577 97.812602,33.5745623 97.5955373,33.8560257 C97.3280866,34.2082431 97.0098001,34.5205367 96.6505749,34.7827036 C96.5821939,34.8317212 96.5135879,34.8825133 96.4404832,34.9290912 C95.2591115,35.6727845 93.8890171,35.058622 93.2391727,33.5175599 C93.0954376,33.1744362 93.0032132,32.8222188 92.8920941,32.4724411 C92.266093,28.2172199 92.7220414,24.4051538 95.1551903,21.4108621 C95.4885477,21.0291454 95.9109804,20.7319342 96.3860484,20.5438483 C96.736501,20.4056673 97.1148459,20.3475558 97.4916162,20.3737282 C97.8683865,20.3999005 98.2343598,20.5094694 98.5616439,20.6946719 C99.119264,20.9907741 99.565315,21.4547784 99.8350151,22.0181488 C99.9292639,22.2182119 100.000569,22.4280341 100.047581,22.6436231 C100.326279,23.8965678 100.405232,25.1843351 100.281291,26.4605688 Z M139.722508,33.8464883 C138.660803,35.3309916 137.715165,35.8258261 136.846682,35.920978 C135.573311,36.0604898 134.124938,35.2737674 133.75829,33.979568 C133.502536,33.0775099 133.346429,32.2719345 133.368698,31.3354975 C133.489265,28.7978907 133.732422,26.2995424 133.900225,23.7734692 C134.001897,22.1998025 133.240934,21.1824087 131.495194,20.5544947 C130.970639,20.3666306 130.422917,20.3386839 129.886666,20.1812063 C129.447138,20.0492357 128.941703,19.9287986 128.589901,19.6413466 C125.797527,17.3075734 121.325994,16.3968652 118.231304,18.3990482 C115.821099,19.9667263 114.220668,22.4098465 113.414492,25.1306596 C113.390874,25.207624 113.36973,25.2879154 113.347461,25.3662106 C113.326092,25.4427314 113.303373,25.5185868 113.283354,25.5955511 C113.109702,26.2454233 112.974065,26.9403208 112.891962,27.6873412 C112.566253,30.6596748 113.015453,33.0380296 113.8358,34.8661001 C113.916328,35.0637234 114.000454,35.2591286 114.090429,35.4514287 L114.301196,35.8930313 C113.520213,36.0103632 108.413232,36.3614716 107.282921,25.7734342 C106.855315,21.7652975 107.144134,17.3120094 107.73572,13.1064712 L107.757989,13.1091328 C107.773959,12.9381255 107.791504,12.76734 107.809275,12.5963326 C108.030613,11.0914238 108.288616,9.62311186 108.565065,8.22200513 C108.74389,7.32593561 108.92294,6.44650104 109.094342,5.54643913 C109.120885,5.43065985 109.150577,5.3013508 109.187467,5.14254244 C109.237403,4.92717524 109.242351,4.7246724 109.216708,4.53215053 C109.196464,3.64273498 108.737142,2.86288834 107.810624,2.16444207 C106.9968,1.52543803 106.140463,0.940996648 105.246562,0.4151103 C103.909308,-0.328361246 103.123376,-0.0686341633 102.777423,1.15791645 C102.412574,2.45943525 102.06617,3.7818032 101.818964,5.13677566 C101.537342,6.66608243 101.258645,8.1987162 101.044504,9.7539735 C100.713171,11.9970307 100.384762,14.7810566 100.257898,17.6134348 C100.126309,18.0654619 99.7934017,17.9964823 98.892527,17.7272179 C97.3876951,17.2820665 95.2937518,16.901237 94.0017108,17.3230994 C91.362969,18.178136 89.3749713,19.9059533 87.9337967,22.2789849 C86.3414641,24.904646 85.7111893,28.3669345 86.122375,31.3590082 C86.122375,31.3590082 86.4746271,35.5765236 89.2924192,37.9085223 C92.1104363,40.2405211 96.1379423,40.5918513 98.9447125,39.115111 C100.386562,38.3385913 101.569508,37.6115329 102.727711,35.2895152 L103.094584,34.0713929 L103.150369,34.1583383 C104.519788,37.0273134 106.537478,38.7154285 110.482657,39.6188174 C112.617764,40.107885 114.584167,39.4043374 116.104295,38.0620075 C116.237908,38.1773432 116.378044,38.2866903 116.522229,38.3913796 C117.229432,38.9469871 117.944958,39.3125124 118.578158,39.4961623 C118.835711,39.5709087 119.069871,39.6046222 119.284911,39.6075056 C120.884442,39.9619411 122.620959,39.8395078 124.113869,39.1468283 C125.501509,38.5027229 125.898524,37.9546566 126.944708,36.8627382 L127.427424,36.0731324 L128.025758,36.8154949 C128.025758,36.8154949 130.998307,40.4126374 136.267468,39.6512001 C138.533263,39.324046 140.816604,38.3133062 142,36.6633406 L139.722508,33.8464883 Z" id="Fill-5"></path>
                <path d="M86.9190519,35.97043 C85.4898202,36.4681939 83.7370822,35.5693589 83.2862432,33.9187708 C83.0507001,33.1504484 82.9289915,32.3512569 82.9244921,31.5472989 C83.0003069,29.3106522 83.1960304,27.1075984 83.3213385,24.8854783 C83.3971532,23.5499365 83.5031139,22.2078124 82.6482295,20.7778475 C80.9614076,17.9553692 78.7803276,16.8406775 75.6917203,17.269213 C73.5884797,17.5611074 72.4487839,17.8146425 70.4024606,19.216689 C69.8110156,19.6220727 69.2825621,20.1128003 68.4719967,19.4116636 C67.5880912,18.6471998 66.5359085,18.1959664 65.4990238,17.6587082 C64.1593299,17.0113654 63.0362818,17.4827998 62.946294,18.7518369 C62.6770054,22.4182215 62.1053577,26.0591844 62.0486654,29.7852644 L61.9589025,34.6210425 C61.8268454,35.1072305 61.5139127,35.5241901 61.0844458,35.7854424 C59.5395797,36.7884607 57.7771681,35.6857988 57.2880842,33.6343667 C56.9819006,32.4368278 56.8232971,31.2063771 56.8154231,29.9700249 C56.8604171,27.4349015 57.127231,24.9587924 57.1980964,22.4282085 C57.2689618,19.95732 56.7893267,19.2929538 54.2660679,17.9222303 C51.4053548,16.3522196 50.4458596,16.7553335 50.3088531,19.5301464 C50.1216784,23.2235414 49.9180809,26.9123968 49.6991855,30.5962587 C49.5619541,32.8776202 48.6926717,34.7063864 46.8854911,35.8730562 C45.3235273,36.8812949 43.8139815,36.1102487 43.4668534,34.0470137 C43.1737181,32.2082604 43.0425608,30.3472633 43.0745065,28.4853582 C43.0979033,26.1849306 43.3415454,23.9412476 43.4808015,21.6694192 C43.5516669,20.4836833 43.0364866,19.4779413 41.8153518,18.7497941 C40.9303215,18.1980092 40.009071,17.7066007 39.0583496,17.279427 C37.6405914,16.6842893 36.8914427,17.0422344 36.6954942,18.3301107 C36.4900969,19.6960677 36.3053969,21.0813178 36.2230581,22.4879039 C36.0505064,25.3596365 35.8804294,28.2388595 36.1143978,31.2056962 C36.1875129,32.128364 36.2984229,33.0580681 36.4617508,33.9970784 C36.8561224,36.2643672 38.6610533,37.5402136 39.0012073,37.8060055 C41.9357105,40.1066601 44.3172384,40.4836715 46.9466828,39.1696927 C48.3216968,38.4817207 49.3448585,37.4457906 50.2163906,36.2500675 C50.5025519,35.8614802 50.7790395,35.567316 51.3486625,36.3215658 C53.1628171,38.7311701 55.5112745,39.6915164 58.0984246,39.9214456 C60.5177474,40.1373022 62.2257164,39.2763726 63.6387504,37.9696571 C64.1989246,38.5931671 64.9116282,39.0587002 65.7057708,39.3215413 C66.4207241,39.5766652 67.1592992,39.7593829 67.9102477,39.8669708 C69.9774931,40.1561415 70.1995381,39.8551679 69.7151786,37.853671 C68.6094531,33.2596251 68.4796457,28.9125318 69.8618587,24.9730921 C70.4098846,23.4126145 71.2110013,22.0323579 72.6663295,21.195261 C73.3747586,20.7919201 74.1828494,20.4836833 75.1229972,21.0860843 C76.063595,21.6882584 75.9808062,22.634532 75.9740571,23.4008116 C75.9594341,24.804674 75.7967811,26.1660913 75.7373891,27.5536112 C75.6359278,29.6193431 75.316921,31.630373 75.8770952,33.8547629 C76.1396347,34.921789 76.7000339,35.9207217 77.3990144,36.7598614 C78.0961951,37.5971852 79.5144033,38.6065589 80.4970704,39.0677793 C82.533945,40.023359 84.3980429,40.266907 86.8882311,39.6933322 C89.7066499,39.0441735 91,37.4859658 91,37.4859658 L88.7907988,34.5070992 C88.2016035,35.1750971 87.7593133,35.6792165 86.9190519,35.97043" id="Fill-7"></path>
                <path d="M144.465245,27.2811217 L144.465245,27.2881489 C144.398821,25.0378443 144.88833,22.8612125 146.252832,21.0305023 C146.898382,20.1684182 148.052579,19.1354135 149.241903,19.5001501 C149.847147,19.6921525 150.215968,20.3032959 150.424021,20.9024251 C151.566285,24.1403974 149.355386,27.9063197 145.907429,28.3492627 C144.904767,28.4700859 144.498119,28.3064191 144.465245,27.2811217 M151.652748,39.8923029 C154.35766,39.4645478 158.608331,37.5971146 158.994715,34.1737138 C159.035245,33.8155511 158.840252,32.1505478 158.492371,32.7732523 C157.568518,34.4264679 155.980652,36.1966531 153.017926,36.585645 C151.772536,36.7493118 147.865917,36.6375559 145.814886,32.5996113 C145.165959,31.3222399 145.356224,31.0955546 146.699335,31.271009 C148.591175,31.5076684 150.612935,31.2945843 152.254165,30.2620329 C153.06386,29.7417902 153.735303,29.032492 154.210852,28.19489 C154.686851,27.357288 154.952321,26.4167708 154.985196,25.4538118 C155.046441,24.3666293 154.891977,23.2780866 154.529686,22.2514291 C154.16762,21.2247715 153.605607,20.2804007 152.875846,19.4729478 C152.148112,18.6820429 151.255106,18.0618321 150.260551,17.6562921 C149.26532,17.2149359 148.187678,16.9911976 147.099229,17.000265 C146.011005,17.0093324 144.936966,17.2505255 143.949391,17.7084297 C138.02574,20.5696511 136.469848,28.1894496 139.532322,33.6963146 L141.312704,36.0839905 C144.661139,39.5561287 148.948737,40.3202847 151.652748,39.8923029" id="Fill-9"></path>
            </g>
        </g>
    </g>
</svg>